<svg width="79" height="20" viewBox="0 0 79 20" fill="none" xmlns="http://www.w3.org/2000/svg">
<path d="M6.90689 6.78261H6.6897L9.42632 0L17.2887 19.8261H18.8959V20H11.4679V19.8261H13.3792L7.64534 5.30435L6.90689 6.78261Z" fill="url(#paint0_linear_132_6233)"/>
<path d="M3.12757 14.0436C1.86785 18.6088 0.695014 19.1596 0 19.6523C0 19.6523 0.912207 20.1161 2.08504 19.9567C3.25788 19.7973 5.75124 18.7306 6.34201 15.7393C6.93277 12.748 8.23882 11.6523 8.818 11.4784C7.26869 10.9567 3.85575 11.4047 3.12757 14.0436Z" fill="url(#paint1_linear_132_6233)"/>
<path d="M24.7693 8.76168C26.1468 8.76168 27.1688 9.11518 27.8353 9.82217C28.5166 10.5144 28.8573 11.5749 28.8573 13.0036V19.7863H27.1021V17.9525C26.8207 18.5859 26.3912 19.0793 25.8136 19.4328C25.2359 19.7715 24.5694 19.9409 23.814 19.9409C23.1179 19.9409 22.4736 19.801 21.8811 19.5212C21.3035 19.2413 20.8443 18.851 20.5037 18.3502C20.163 17.8494 19.9927 17.2971 19.9927 16.6932C19.9927 15.8831 20.2 15.2571 20.6148 14.8153C21.0295 14.3587 21.7108 14.0346 22.6587 13.8432C23.6067 13.637 24.9249 13.5339 26.6134 13.5339H27.1021V12.8048C27.1021 11.9063 26.917 11.2582 26.5467 10.8606C26.1764 10.4481 25.5766 10.2419 24.7471 10.2419C23.503 10.2419 22.2662 10.6249 21.0369 11.3908L20.437 10.0873C20.9999 9.68961 21.6738 9.37293 22.4588 9.13727C23.2586 8.88688 24.0288 8.76168 24.7693 8.76168ZM24.0584 18.527C24.9471 18.527 25.6728 18.2324 26.2357 17.6432C26.8133 17.0393 27.1021 16.2661 27.1021 15.3234V14.6827H26.7022C25.3988 14.6827 24.4065 14.7416 23.7251 14.8595C23.0438 14.9626 22.555 15.1467 22.2588 15.4118C21.9774 15.6622 21.8367 16.0378 21.8367 16.5386C21.8367 17.113 22.0441 17.5917 22.4588 17.9746C22.8883 18.3428 23.4215 18.527 24.0584 18.527Z" fill="url(#paint2_linear_132_6233)"/>
<path d="M41.7493 4.21045V19.7863H39.9497V17.82C39.6238 18.4975 39.1425 19.0204 38.5056 19.3886C37.8835 19.7568 37.1503 19.9409 36.3061 19.9409C35.3582 19.9409 34.5213 19.7053 33.7956 19.2339C33.0698 18.7626 32.507 18.1072 32.1071 17.2676C31.7072 16.4134 31.5072 15.4265 31.5072 14.3071C31.5072 13.2025 31.7072 12.2303 32.1071 11.3908C32.507 10.5512 33.0698 9.90317 33.7956 9.44658C34.5213 8.98998 35.3582 8.76168 36.3061 8.76168C37.1503 8.76168 37.8835 8.9458 38.5056 9.31402C39.1425 9.68224 39.6238 10.2051 39.9497 10.8826V4.21045H41.7493ZM36.6616 18.4607C37.7132 18.4607 38.5204 18.1072 39.0832 17.4002C39.6609 16.6785 39.9497 15.6622 39.9497 14.3513C39.9497 13.0404 39.6609 12.0315 39.0832 11.3245C38.5204 10.6175 37.7132 10.264 36.6616 10.264C35.61 10.264 34.7879 10.6175 34.1955 11.3245C33.6178 12.0315 33.329 13.0257 33.329 14.3071C33.329 15.618 33.6178 16.6417 34.1955 17.3781C34.7879 18.0998 35.61 18.4607 36.6616 18.4607Z" fill="url(#paint3_linear_132_6233)"/>
<path d="M50.5257 8.76168C53.1177 8.76168 54.4137 10.183 54.4137 13.0257V19.7863H52.6141V13.1362C52.6141 12.1346 52.4142 11.4055 52.0143 10.9489C51.6292 10.4923 51.0071 10.264 50.148 10.264C49.1557 10.264 48.3632 10.566 47.7708 11.1699C47.1783 11.7737 46.8821 12.5912 46.8821 13.6222V19.7863H45.0825V4.21045H46.8821V10.7501C47.2376 10.102 47.7264 9.6086 48.3484 9.26983C48.9853 8.93107 49.7111 8.76168 50.5257 8.76168Z" fill="url(#paint4_linear_132_6233)"/>
<path d="M62.1088 8.76168C63.4863 8.76168 64.5082 9.11518 65.1748 9.82217C65.8561 10.5144 66.1967 11.5749 66.1967 13.0036V19.7863H64.4416V17.9525C64.1602 18.5859 63.7306 19.0793 63.153 19.4328C62.5754 19.7715 61.9088 19.9409 61.1535 19.9409C60.4573 19.9409 59.813 19.801 59.2206 19.5212C58.6429 19.2413 58.1838 18.851 57.8431 18.3502C57.5025 17.8494 57.3321 17.2971 57.3321 16.6932C57.3321 15.8831 57.5395 15.2571 57.9542 14.8153C58.3689 14.3587 59.0502 14.0346 59.9982 13.8432C60.9461 13.637 62.2643 13.5339 63.9528 13.5339H64.4416V12.8048C64.4416 11.9063 64.2564 11.2582 63.8862 10.8606C63.5159 10.4481 62.916 10.2419 62.0866 10.2419C60.8424 10.2419 59.6057 10.6249 58.3763 11.3908L57.7765 10.0873C58.3393 9.68961 59.0132 9.37293 59.7982 9.13727C60.598 8.88688 61.3682 8.76168 62.1088 8.76168ZM61.3979 18.527C62.2865 18.527 63.0123 18.2324 63.5751 17.6432C64.1528 17.0393 64.4416 16.2661 64.4416 15.3234V14.6827H64.0417C62.7383 14.6827 61.7459 14.7416 61.0646 14.8595C60.3833 14.9626 59.8945 15.1467 59.5983 15.4118C59.3168 15.6622 59.1761 16.0378 59.1761 16.5386C59.1761 17.113 59.3835 17.5917 59.7982 17.9746C60.2277 18.3428 60.761 18.527 61.3979 18.527Z" fill="url(#paint5_linear_132_6233)"/>
<path d="M74.9341 8.76168C77.5261 8.76168 78.8221 10.183 78.8221 13.0257V19.7863H77.0225V13.1362C77.0225 12.1346 76.8226 11.4055 76.4227 10.9489C76.0376 10.4923 75.4155 10.264 74.5564 10.264C73.5641 10.264 72.7717 10.566 72.1792 11.1699C71.5868 11.7737 71.2905 12.5912 71.2905 13.6222V19.7863H69.4909V9.0268H71.2683V10.7943C71.6238 10.1315 72.12 9.63069 72.7569 9.29193C73.3937 8.93843 74.1195 8.76168 74.9341 8.76168Z" fill="url(#paint6_linear_132_6233)"/>
<defs>
<linearGradient id="paint0_linear_132_6233" x1="12.7928" y1="0" x2="12.7928" y2="20" gradientUnits="userSpaceOnUse">
<stop stop-color="#535353"/>
<stop offset="0.40625" stop-color="#2C2C2C"/>
<stop offset="1" stop-color="#181818"/>
</linearGradient>
<linearGradient id="paint1_linear_132_6233" x1="4.409" y1="11.2871" x2="4.409" y2="19.99" gradientUnits="userSpaceOnUse">
<stop stop-color="#535353"/>
<stop offset="0.40625" stop-color="#2C2C2C"/>
<stop offset="1" stop-color="#181818"/>
</linearGradient>
<linearGradient id="paint2_linear_132_6233" x1="49.4074" y1="9.48318" x2="49.4074" y2="21.2193" gradientUnits="userSpaceOnUse">
<stop stop-color="#3F3F3F"/>
<stop offset="1" stop-color="#1B1B1B"/>
</linearGradient>
<linearGradient id="paint3_linear_132_6233" x1="49.4074" y1="9.48318" x2="49.4074" y2="21.2193" gradientUnits="userSpaceOnUse">
<stop stop-color="#3F3F3F"/>
<stop offset="1" stop-color="#1B1B1B"/>
</linearGradient>
<linearGradient id="paint4_linear_132_6233" x1="49.4074" y1="9.48318" x2="49.4074" y2="21.2193" gradientUnits="userSpaceOnUse">
<stop stop-color="#3F3F3F"/>
<stop offset="1" stop-color="#1B1B1B"/>
</linearGradient>
<linearGradient id="paint5_linear_132_6233" x1="49.4074" y1="9.48318" x2="49.4074" y2="21.2193" gradientUnits="userSpaceOnUse">
<stop stop-color="#3F3F3F"/>
<stop offset="1" stop-color="#1B1B1B"/>
</linearGradient>
<linearGradient id="paint6_linear_132_6233" x1="49.4074" y1="9.48318" x2="49.4074" y2="21.2193" gradientUnits="userSpaceOnUse">
<stop stop-color="#3F3F3F"/>
<stop offset="1" stop-color="#1B1B1B"/>
</linearGradient>
</defs>
</svg>
