<svg width="62" height="26" viewBox="0 0 62 26" fill="none" xmlns="http://www.w3.org/2000/svg">
<g clip-path="url(#clip0_230_20)">
<path d="M3.85846 24.3258C2.9689 24.3258 2.25725 24.0859 1.72351 23.6061L1.98229 23.0966C2.26264 23.3338 2.54838 23.5036 2.83951 23.6061C3.13603 23.7085 3.47837 23.7597 3.86654 23.7597C4.3248 23.7597 4.67793 23.6707 4.92593 23.4928C5.17393 23.3149 5.29793 23.0642 5.29793 22.7407C5.29793 22.5521 5.23863 22.3984 5.12002 22.2798C5.00141 22.1612 4.84506 22.0668 4.65098 21.9968C4.45689 21.9267 4.19541 21.8539 3.86654 21.7784C3.42446 21.676 3.06055 21.5681 2.77481 21.4549C2.49446 21.3417 2.26533 21.18 2.08742 20.9697C1.9149 20.7595 1.82864 20.4845 1.82864 20.1448C1.82864 19.8214 1.91221 19.5356 2.07934 19.2876C2.25186 19.0342 2.49446 18.8402 2.80716 18.7054C3.12524 18.5652 3.49185 18.4951 3.90698 18.4951C4.30054 18.4951 4.66715 18.5571 5.0068 18.6811C5.35184 18.8051 5.64297 18.983 5.88019 19.2149L5.62949 19.7243C5.35993 19.4925 5.08497 19.3254 4.80463 19.2229C4.52967 19.1151 4.23046 19.0612 3.90698 19.0612C3.46489 19.0612 3.11716 19.1555 2.86377 19.3442C2.61577 19.5275 2.49177 19.7863 2.49177 20.1206C2.49177 20.4063 2.60229 20.622 2.82333 20.7675C3.04437 20.9131 3.37863 21.0371 3.82611 21.1395C4.31672 21.2581 4.70219 21.3687 4.98254 21.4711C5.26289 21.5681 5.49471 21.7164 5.67801 21.9159C5.86671 22.1154 5.96106 22.3822 5.96106 22.7165C5.96106 23.04 5.8748 23.323 5.70228 23.5656C5.53515 23.8082 5.29254 23.9969 4.97445 24.1317C4.65637 24.2611 4.28437 24.3258 3.85846 24.3258Z" fill="white"/>
<path d="M8.84152 20.2257C9.78499 20.2257 10.2567 20.746 10.2567 21.7865V24.2611H9.60169V21.8269C9.60169 21.4603 9.5289 21.1935 9.38334 21.0263C9.24317 20.8592 9.01673 20.7756 8.70404 20.7756C8.34282 20.7756 8.05439 20.8861 7.83874 21.1072C7.62309 21.3282 7.51526 21.6275 7.51526 22.0048V24.2611H6.86022V18.5598H7.51526V20.9535C7.64465 20.7163 7.82256 20.5357 8.049 20.4117C8.28082 20.2877 8.545 20.2257 8.84152 20.2257Z" fill="white"/>
<path d="M13.0092 24.3177C12.6372 24.3177 12.3083 24.2341 12.0226 24.067C11.7422 23.8999 11.5239 23.6627 11.3675 23.3554C11.2166 23.0427 11.1411 22.6814 11.1411 22.2717C11.1411 21.862 11.2166 21.5035 11.3675 21.1961C11.5239 20.8835 11.7422 20.6435 12.0226 20.4764C12.3083 20.3093 12.6372 20.2257 13.0092 20.2257C13.3812 20.2257 13.7101 20.3093 13.9958 20.4764C14.2815 20.6435 14.4999 20.8835 14.6508 21.1961C14.8072 21.5035 14.8854 21.862 14.8854 22.2717C14.8854 22.6814 14.8072 23.0427 14.6508 23.3554C14.4999 23.6627 14.2815 23.8999 13.9958 24.067C13.7101 24.2341 13.3812 24.3177 13.0092 24.3177ZM13.0092 23.7759C13.3974 23.7759 13.6939 23.6492 13.8987 23.3958C14.109 23.137 14.2141 22.7623 14.2141 22.2717C14.2141 21.7919 14.109 21.4226 13.8987 21.1638C13.6885 20.8996 13.392 20.7675 13.0092 20.7675C12.6264 20.7675 12.3299 20.8996 12.1196 21.1638C11.9094 21.4226 11.8042 21.7919 11.8042 22.2717C11.8042 22.7569 11.9067 23.1289 12.1115 23.3877C12.3218 23.6465 12.621 23.7759 13.0092 23.7759Z" fill="white"/>
<path d="M18.0125 20.7918L17.5839 20.8322C17.1795 20.87 16.8857 20.9967 16.7024 21.2123C16.5245 21.428 16.4355 21.6948 16.4355 22.0129V24.2611H15.7805V20.3228H16.4193V21.0101C16.6404 20.5519 17.0744 20.2958 17.7213 20.2419L17.9559 20.2257L18.0125 20.7918Z" fill="white"/>
<path d="M20.5971 23.792C20.7157 23.792 20.8343 23.784 20.9529 23.7678L20.9205 24.2854C20.7965 24.3069 20.6618 24.3177 20.5162 24.3177C20.0418 24.3177 19.6832 24.1937 19.4406 23.9457C19.2034 23.6977 19.0848 23.3527 19.0848 22.9106V20.8403H18.3165V20.3228H19.0848V19.1259H19.7398V20.3228H20.8558V20.8403H19.7398V22.8621C19.7398 23.4821 20.0256 23.792 20.5971 23.792Z" fill="white"/>
<path d="M27.5814 18.5598H28.2041V24.2611H27.6946L24.2576 19.6758V24.2611H23.635V18.5598H24.1444L27.5814 23.1451V18.5598Z" fill="white"/>
<path d="M32.7348 22.393H29.8559C29.8774 22.8513 30.0014 23.199 30.2279 23.4362C30.4543 23.6681 30.7751 23.784 31.1902 23.784C31.6485 23.784 32.069 23.6276 32.4518 23.3149L32.6701 23.792C32.4976 23.9538 32.2766 24.0832 32.007 24.1802C31.7374 24.2719 31.4625 24.3177 31.1821 24.3177C30.5675 24.3177 30.0823 24.1371 29.7265 23.7759C29.3761 23.4147 29.2008 22.916 29.2008 22.2798C29.2008 21.8754 29.279 21.5196 29.4354 21.2123C29.5917 20.8996 29.8101 20.657 30.0904 20.4845C30.3761 20.312 30.6996 20.2257 31.0608 20.2257C31.5838 20.2257 31.9935 20.3982 32.29 20.7433C32.5866 21.0829 32.7348 21.552 32.7348 22.1504V22.393ZM31.0689 20.7352C30.7239 20.7352 30.4462 20.843 30.236 21.0587C30.0311 21.2743 29.9098 21.5789 29.8721 21.9725H32.1607C32.1499 21.5735 32.0501 21.2689 31.8614 21.0587C31.6727 20.843 31.4086 20.7352 31.0689 20.7352Z" fill="white"/>
<path d="M38.9172 20.3228H39.5722L38.1085 24.2611H37.4777L36.3698 21.2123L35.2538 24.2611H34.6311L33.1674 20.3228H33.8466L34.9626 23.4847L36.1029 20.3228H36.669L37.7931 23.4847L38.9172 20.3228Z" fill="white"/>
<path d="M41.5616 24.3177C40.8985 24.3177 40.3729 24.1479 39.9847 23.8082L40.203 23.323C40.4133 23.4901 40.6262 23.6114 40.8419 23.6869C41.0629 23.757 41.3109 23.792 41.5859 23.792C41.877 23.792 42.0981 23.7435 42.249 23.6465C42.4054 23.5441 42.4835 23.3985 42.4835 23.2098C42.4835 23.0534 42.4323 22.9294 42.3299 22.8378C42.2275 22.7461 42.0576 22.6734 41.8204 22.6194L41.1573 22.4658C40.823 22.3903 40.5669 22.2609 40.389 22.0776C40.2111 21.8943 40.1222 21.6679 40.1222 21.3983C40.1222 21.0479 40.2596 20.7648 40.5346 20.5492C40.8096 20.3335 41.1762 20.2257 41.6344 20.2257C41.9094 20.2257 42.1708 20.2715 42.4188 20.3632C42.6668 20.4495 42.8744 20.5762 43.0415 20.7433L42.8232 21.2204C42.462 20.9131 42.0657 20.7595 41.6344 20.7595C41.3595 20.7595 41.1438 20.8134 40.9875 20.9212C40.8365 21.0236 40.761 21.1692 40.761 21.3579C40.761 21.5142 40.8069 21.6409 40.8985 21.738C40.9955 21.8296 41.1492 21.8997 41.3595 21.9482L42.0307 22.11C42.3973 22.1962 42.6695 22.3283 42.8475 22.5062C43.0254 22.6788 43.1143 22.9052 43.1143 23.1855C43.1143 23.5306 42.9742 23.8055 42.6938 24.0104C42.4188 24.2153 42.0415 24.3177 41.5616 24.3177Z" fill="white"/>
<path d="M50.4919 24.2611L49.8611 22.7974H46.8851L46.2543 24.2611H45.575L48.082 18.5598H48.6561L51.1631 24.2611H50.4919ZM47.1196 22.2474H49.6266L48.3731 19.3281L47.1196 22.2474Z" fill="white"/>
<path d="M53.8121 20.2257C54.1571 20.2257 54.4617 20.312 54.7259 20.4845C54.99 20.657 55.1949 20.8996 55.3405 21.2123C55.486 21.5196 55.5588 21.8781 55.5588 22.2879C55.5588 22.6976 55.486 23.0561 55.3405 23.3634C55.1949 23.6654 54.99 23.8999 54.7259 24.067C54.4671 24.2341 54.1625 24.3177 53.8121 24.3177C53.5047 24.3177 53.2352 24.2503 53.0034 24.1155C52.7769 23.9807 52.6044 23.7894 52.4858 23.5414V25.7167H51.8308V20.3228H52.4858V21.0021C52.6044 20.7541 52.7769 20.5627 53.0034 20.4279C53.2352 20.2931 53.5047 20.2257 53.8121 20.2257ZM53.6827 23.7759C54.0654 23.7759 54.362 23.6465 54.5722 23.3877C54.7825 23.1289 54.8876 22.7623 54.8876 22.2879C54.8876 21.8134 54.7825 21.4441 54.5722 21.18C54.362 20.9104 54.0654 20.7756 53.6827 20.7756C53.2999 20.7756 53.0034 20.905 52.7931 21.1638C52.5882 21.4226 52.4858 21.7919 52.4858 22.2717C52.4858 22.7515 52.5882 23.1235 52.7931 23.3877C53.0034 23.6465 53.2999 23.7759 53.6827 23.7759Z" fill="white"/>
<path d="M58.438 20.2257C58.7831 20.2257 59.0877 20.312 59.3518 20.4845C59.616 20.657 59.8209 20.8996 59.9665 21.2123C60.112 21.5196 60.1848 21.8781 60.1848 22.2879C60.1848 22.6976 60.112 23.0561 59.9665 23.3634C59.8209 23.6654 59.616 23.8999 59.3518 24.067C59.0931 24.2341 58.7885 24.3177 58.438 24.3177C58.1307 24.3177 57.8612 24.2503 57.6293 24.1155C57.4029 23.9807 57.2304 23.7894 57.1118 23.5414V25.7167H56.4567V20.3228H57.1118V21.0021C57.2304 20.7541 57.4029 20.5627 57.6293 20.4279C57.8612 20.2931 58.1307 20.2257 58.438 20.2257ZM58.3086 23.7759C58.6914 23.7759 58.9879 23.6465 59.1982 23.3877C59.4085 23.1289 59.5136 22.7623 59.5136 22.2879C59.5136 21.8134 59.4085 21.4441 59.1982 21.18C58.9879 20.9104 58.6914 20.7756 58.3086 20.7756C57.9259 20.7756 57.6293 20.905 57.4191 21.1638C57.2142 21.4226 57.1118 21.7919 57.1118 22.2717C57.1118 22.7515 57.2142 23.1235 57.4191 23.3877C57.6293 23.6465 57.9259 23.7759 58.3086 23.7759Z" fill="white"/>
<path d="M6.44997 5.71376L5.20422 5.25963L7.3251 0.00927734L8.40575 0.44855L14.3466 15.4293L14.6612 15.3978L15.7568 15.8392V15.9742H9.99061L8.90358 15.5302L11.3176 15.4423L7.02321 4.56621L6.44997 5.71376Z" fill="url(#paint0_linear_230_20)"/>
<path d="M7.6551 9.3585C6.23514 8.13865 3.80301 9.30126 3.23773 11.3498C2.58466 13.7166 0.630393 15.1136 0.0045166 15.3228C0.28928 15.4827 0.429343 15.5928 0.744901 15.7111C0.744901 15.7111 1.51799 16.0638 2.42845 15.94C3.3389 15.8162 5.27444 14.9882 5.73304 12.6661C6.19164 10.344 7.2055 9.49351 7.6551 9.3585Z" fill="url(#paint1_linear_230_20)"/>
<path d="M5.38529 5.28844H5.21594L7.3497 0L13.48 15.4585H14.7332V15.5941H8.94156V15.4585H10.4318L5.96106 4.13584L5.38529 5.28844Z" fill="url(#paint2_linear_230_20)"/>
<path d="M2.43858 10.9496C1.45638 14.5091 0.541907 14.9385 0 15.3227C0 15.3227 0.711253 15.6843 1.62572 15.56C2.54019 15.4357 4.48428 14.604 4.9449 12.2717C5.40553 9.93935 6.42386 9.08506 6.87545 8.94946C5.66745 8.54266 3.00636 8.89197 2.43858 10.9496Z" fill="url(#paint3_linear_230_20)"/>
<path d="M19.8549 7.25521C20.9289 7.25521 21.7258 7.53083 22.2454 8.08208C22.7767 8.62184 23.0423 9.4487 23.0423 10.5627V15.8512H21.6738L21.1711 15.3315L21.6738 14.4214C21.4544 14.9152 21.1195 15.2999 20.6691 15.5755C20.2187 15.8397 19.699 15.9717 19.11 15.9717C18.5672 15.9717 18.0649 15.8626 17.6029 15.6444C17.1525 15.4262 16.7945 15.1219 16.5289 14.7314C16.2633 14.341 16.1305 13.9103 16.1305 13.4395C16.1305 12.8078 16.2922 12.3198 16.6155 11.9752C16.9389 11.6192 17.4701 11.3666 18.2092 11.2173C18.9483 11.0565 19.9762 10.9761 21.2927 10.9761H21.6738V10.4076C21.6738 9.7071 21.5294 9.20179 21.2407 8.89172C20.952 8.57016 20.4843 8.40938 19.8376 8.40938C18.8675 8.40938 17.9032 8.70797 16.9447 9.30515L16.4665 8.76091L16.4769 8.28879C16.9158 7.97872 17.4413 7.73181 18.0533 7.54806C18.6769 7.35283 19.2775 7.25521 19.8549 7.25521ZM19.3006 14.8693C19.9935 14.8693 20.5594 14.6396 20.9982 14.1802C21.4486 13.7094 21.6738 13.1064 21.6738 12.3714V11.8719H21.362C20.3457 11.8719 19.572 11.9178 19.0407 12.0097C18.5095 12.0901 18.1284 12.2336 17.8974 12.4403C17.678 12.6356 17.5683 12.9284 17.5683 13.3189C17.5683 13.7668 17.73 14.14 18.0533 14.4386C18.3882 14.7257 18.804 14.8693 19.3006 14.8693Z" fill="url(#paint4_linear_230_20)"/>
<path d="M33.0943 3.70658V15.8512H31.6911L31.1485 15.4205L31.6911 14.318C31.437 14.8463 31.0617 15.254 30.5651 15.5411C30.0801 15.8282 29.5084 15.9717 28.8502 15.9717C28.1111 15.9717 27.4586 15.788 26.8927 15.4205C26.3268 15.053 25.888 14.542 25.5762 13.8874C25.2643 13.2213 25.1084 12.4518 25.1084 11.579C25.1084 10.7177 25.2643 9.95975 25.5762 9.30515C25.888 8.65055 26.3268 8.14524 26.8927 7.78923C27.4586 7.43322 28.1111 7.25521 28.8502 7.25521C29.5084 7.25521 30.0801 7.39877 30.5651 7.68587C31.0617 7.97298 31.437 8.38067 31.6911 8.90894V3.70658L32.5965 3.36963L33.0943 3.70658ZM29.1273 14.8176C29.9473 14.8176 30.5767 14.542 31.0155 13.9907C31.4659 13.428 31.6911 12.6356 31.6911 11.6135C31.6911 10.5914 31.4659 9.80471 31.0155 9.25347C30.5767 8.70223 29.9473 8.4266 29.1273 8.4266C28.3074 8.4266 27.6664 8.70223 27.2045 9.25347C26.7541 9.80471 26.5289 10.5799 26.5289 11.579C26.5289 12.6011 26.7541 13.3993 27.2045 13.9735C27.6664 14.5362 28.3074 14.8176 29.1273 14.8176Z" fill="url(#paint5_linear_230_20)"/>
<path d="M39.9373 7.25521C41.9583 7.25521 42.9688 8.36344 42.9688 10.5799V15.8512H41.5657L40.9976 15.3315L41.5657 14.9946V10.666C41.5657 9.8851 41.4097 9.31663 41.0979 8.96062C40.7977 8.60461 40.3126 8.4266 39.6428 8.4266C38.8691 8.4266 38.2512 8.66203 37.7893 9.13288C37.3273 9.60374 37.0964 10.2411 37.0964 11.045V15.8512H35.6932L35.1169 15.3315L35.6932 14.9946V3.70658L36.461 3.36963L37.0964 3.70658V8.80558C37.3735 8.30028 37.7546 7.91556 38.2397 7.65142C38.7363 7.38728 39.3021 7.25521 39.9373 7.25521Z" fill="url(#paint6_linear_230_20)"/>
<path d="M48.9687 7.25521C50.0427 7.25521 50.8396 7.53083 51.3593 8.08208C51.8905 8.62184 52.1561 9.4487 52.1561 10.5627V15.8512H50.7876L50.2387 15.3315L50.7876 14.4214C50.5682 14.9152 50.2333 15.2999 49.7829 15.5755C49.3325 15.8397 48.8128 15.9717 48.2238 15.9717C47.6811 15.9717 47.1787 15.8626 46.7168 15.6444C46.2664 15.4262 45.9084 15.1219 45.6427 14.7314C45.3771 14.341 45.2443 13.9103 45.2443 13.4395C45.2443 12.8078 45.406 12.3198 45.7294 11.9752C46.0527 11.6192 46.5839 11.3666 47.323 11.2173C48.0622 11.0565 49.09 10.9761 50.4065 10.9761H50.7876V10.4076C50.7876 9.7071 50.6433 9.20179 50.3545 8.89172C50.0658 8.57016 49.5981 8.40938 48.9514 8.40938C47.9813 8.40938 47.017 8.70797 46.0585 9.30515L45.5342 8.76091L45.5908 8.28879C46.0296 7.97872 46.5551 7.73181 47.1671 7.54806C47.7908 7.35283 48.3913 7.25521 48.9687 7.25521ZM48.4144 14.8693C49.1073 14.8693 49.6732 14.6396 50.112 14.1802C50.5624 13.7094 50.7876 13.1064 50.7876 12.3714V11.8719H50.4758C49.4595 11.8719 48.6858 11.9178 48.1545 12.0097C47.6233 12.0901 47.2422 12.2336 47.0112 12.4403C46.7918 12.6356 46.6821 12.9284 46.6821 13.3189C46.6821 13.7668 46.8438 14.14 47.1671 14.4386C47.5021 14.7257 47.9178 14.8693 48.4144 14.8693Z" fill="url(#paint7_linear_230_20)"/>
<path d="M58.9687 7.25521C60.9897 7.25521 62.0002 8.36344 62.0002 10.5799V15.8512H60.5971L60.152 15.3315L60.5971 15.2071V10.666C60.5971 9.8851 60.4412 9.31663 60.1293 8.96062C59.8291 8.60461 59.344 8.4266 58.6742 8.4266C57.9005 8.4266 57.2826 8.66203 56.8207 9.13288C56.3587 9.60374 56.1278 10.2411 56.1278 11.045V15.8512H54.7246L54.2712 15.3315L54.7246 15.0866V7.46193L55.6154 7.07613L56.1105 7.46193V8.84004C56.3876 8.32325 56.7745 7.93278 57.2711 7.66864C57.7677 7.39302 58.3335 7.25521 58.9687 7.25521Z" fill="url(#paint8_linear_230_20)"/>
<path d="M19.3131 6.83085C20.3872 6.83085 21.184 7.10648 21.7037 7.65772C22.2349 8.19748 22.5005 9.02434 22.5005 10.1383V15.4268H21.132V13.997C20.9126 14.4908 20.5777 14.8756 20.1273 15.1512C19.6769 15.4153 19.1572 15.5474 18.5683 15.5474C18.0255 15.5474 17.5231 15.4383 17.0612 15.2201C16.6108 15.0019 16.2528 14.6976 15.9872 14.3071C15.7216 13.9166 15.5887 13.486 15.5887 13.0151C15.5887 12.3835 15.7504 11.8954 16.0738 11.5509C16.3971 11.1949 16.9284 10.9422 17.6675 10.7929C18.4066 10.6321 19.4344 10.5517 20.7509 10.5517H21.132V9.98328C21.132 9.28274 20.9877 8.77743 20.699 8.46736C20.4103 8.1458 19.9425 7.98502 19.2958 7.98502C18.3257 7.98502 17.3614 8.28361 16.4029 8.88079L15.9352 7.86444C16.374 7.55436 16.8995 7.30745 17.5116 7.1237C18.1352 6.92847 18.7357 6.83085 19.3131 6.83085ZM18.7588 14.4449C19.4517 14.4449 20.0176 14.2152 20.4565 13.7558C20.9068 13.285 21.132 12.6821 21.132 11.9471V11.4475H20.8202C19.804 11.4475 19.0302 11.4935 18.499 11.5853C17.9677 11.6657 17.5866 11.8093 17.3557 12.016C17.1362 12.2112 17.0265 12.5041 17.0265 12.8945C17.0265 13.3424 17.1882 13.7157 17.5116 14.0142C17.8465 14.3013 18.2622 14.4449 18.7588 14.4449Z" fill="url(#paint9_linear_230_20)"/>
<path d="M32.5525 3.28223V15.4268H31.1494V13.8937C30.8953 14.4219 30.52 14.8296 30.0234 15.1167C29.5383 15.4038 28.9667 15.5474 28.3084 15.5474C27.5693 15.5474 26.9168 15.3636 26.3509 14.9961C25.7851 14.6286 25.3462 14.1176 25.0344 13.463C24.7226 12.7969 24.5667 12.0275 24.5667 11.1547C24.5667 10.2934 24.7226 9.53539 25.0344 8.88079C25.3462 8.22619 25.7851 7.72088 26.3509 7.36487C26.9168 7.00886 27.5693 6.83085 28.3084 6.83085C28.9667 6.83085 29.5383 6.97441 30.0234 7.26151C30.52 7.54862 30.8953 7.95631 31.1494 8.48458V3.28223H32.5525ZM28.5856 14.3932C29.4055 14.3932 30.0349 14.1176 30.4738 13.5664C30.9242 13.0036 31.1494 12.2112 31.1494 11.1891C31.1494 10.167 30.9242 9.38035 30.4738 8.82911C30.0349 8.27787 29.4055 8.00225 28.5856 8.00225C27.7656 8.00225 27.1247 8.27787 26.6628 8.82911C26.2124 9.38035 25.9872 10.1555 25.9872 11.1547C25.9872 12.1768 26.2124 12.9749 26.6628 13.5491C27.1247 14.1119 27.7656 14.3932 28.5856 14.3932Z" fill="url(#paint10_linear_230_20)"/>
<path d="M39.3956 6.83085C41.4166 6.83085 42.427 7.93908 42.427 10.1555V15.4268H41.0239V10.2417C41.0239 9.46074 40.868 8.89228 40.5562 8.53626C40.2559 8.18025 39.7709 8.00225 39.1011 8.00225C38.3273 8.00225 37.7095 8.23767 37.2475 8.70853C36.7856 9.17938 36.5546 9.81676 36.5546 10.6207V15.4268H35.1515V3.28223H36.5546V8.38123C36.8318 7.87592 37.2129 7.4912 37.6979 7.22706C38.1945 6.96292 38.7604 6.83085 39.3956 6.83085Z" fill="url(#paint11_linear_230_20)"/>
<path d="M48.427 6.83085C49.501 6.83085 50.2978 7.10648 50.8175 7.65772C51.3487 8.19748 51.6144 9.02434 51.6144 10.1383V15.4268H50.2459V13.997C50.0264 14.4908 49.6915 14.8756 49.2411 15.1512C48.7907 15.4153 48.2711 15.5474 47.6821 15.5474C47.1393 15.5474 46.6369 15.4383 46.175 15.2201C45.7246 15.0019 45.3666 14.6976 45.101 14.3071C44.8354 13.9166 44.7026 13.486 44.7026 13.0151C44.7026 12.3835 44.8642 11.8954 45.1876 11.5509C45.511 11.1949 46.0422 10.9422 46.7813 10.7929C47.5204 10.6321 48.5482 10.5517 49.8648 10.5517H50.2459V9.98328C50.2459 9.28274 50.1015 8.77743 49.8128 8.46736C49.5241 8.1458 49.0564 7.98502 48.4096 7.98502C47.4396 7.98502 46.4753 8.28361 45.5167 8.88079L45.049 7.86444C45.4879 7.55436 46.0133 7.30745 46.6254 7.1237C47.249 6.92847 47.8495 6.83085 48.427 6.83085ZM47.8726 14.4449C48.5656 14.4449 49.1314 14.2152 49.5703 13.7558C50.0207 13.285 50.2459 12.6821 50.2459 11.9471V11.4475H49.9341C48.9178 11.4475 48.144 11.4935 47.6128 11.5853C47.0816 11.6657 46.7005 11.8093 46.4695 12.016C46.2501 12.2112 46.1404 12.5041 46.1404 12.8945C46.1404 13.3424 46.302 13.7157 46.6254 14.0142C46.9603 14.3013 47.3761 14.4449 47.8726 14.4449Z" fill="url(#paint12_linear_230_20)"/>
<path d="M58.427 6.83085C60.448 6.83085 61.4585 7.93908 61.4585 10.1555V15.4268H60.0553V10.2417C60.0553 9.46074 59.8994 8.89228 59.5876 8.53626C59.2873 8.18025 58.8023 8.00225 58.1325 8.00225C57.3587 8.00225 56.7409 8.23767 56.2789 8.70853C55.817 9.17938 55.586 9.81676 55.586 10.6207V15.4268H54.1829V7.03757H55.5687V8.41568C55.8459 7.89889 56.2327 7.50842 56.7293 7.24429C57.2259 6.96867 57.7918 6.83085 58.427 6.83085Z" fill="url(#paint13_linear_230_20)"/>
</g>
<defs>
<linearGradient id="paint0_linear_230_20" x1="10.86" y1="0.00692389" x2="11.0199" y2="15.9742" gradientUnits="userSpaceOnUse">
<stop stop-color="#C9FFF2"/>
<stop offset="1" stop-color="#A4E1F4"/>
</linearGradient>
<linearGradient id="paint1_linear_230_20" x1="4.2328" y1="9.20999" x2="4.2328" y2="15.9659" gradientUnits="userSpaceOnUse">
<stop stop-color="#81BFCD"/>
<stop offset="1" stop-color="#349FC1"/>
</linearGradient>
<linearGradient id="paint2_linear_230_20" x1="9.97457" y1="0" x2="9.97457" y2="15.5941" gradientUnits="userSpaceOnUse">
<stop stop-color="#FCFCFC"/>
<stop offset="0.40625" stop-color="#F0F0F0"/>
<stop offset="1" stop-color="#BEBEBE"/>
</linearGradient>
<linearGradient id="paint3_linear_230_20" x1="3.43772" y1="8.80029" x2="3.43772" y2="15.586" gradientUnits="userSpaceOnUse">
<stop stop-color="#FCFCFC"/>
<stop offset="0.40625" stop-color="#F0F0F0"/>
<stop offset="1" stop-color="#BEBEBE"/>
</linearGradient>
<linearGradient id="paint4_linear_230_20" x1="39.0654" y1="7.81777" x2="39.0653" y2="16.9685" gradientUnits="userSpaceOnUse">
<stop stop-color="#C8FFF2"/>
<stop offset="1" stop-color="#A7E3F4"/>
</linearGradient>
<linearGradient id="paint5_linear_230_20" x1="39.0654" y1="7.81777" x2="39.0653" y2="16.9685" gradientUnits="userSpaceOnUse">
<stop stop-color="#C8FFF2"/>
<stop offset="1" stop-color="#A7E3F4"/>
</linearGradient>
<linearGradient id="paint6_linear_230_20" x1="39.0654" y1="7.81777" x2="39.0653" y2="16.9685" gradientUnits="userSpaceOnUse">
<stop stop-color="#C8FFF2"/>
<stop offset="1" stop-color="#A7E3F4"/>
</linearGradient>
<linearGradient id="paint7_linear_230_20" x1="39.0654" y1="7.81777" x2="39.0653" y2="16.9685" gradientUnits="userSpaceOnUse">
<stop stop-color="#C8FFF2"/>
<stop offset="1" stop-color="#A7E3F4"/>
</linearGradient>
<linearGradient id="paint8_linear_230_20" x1="39.0654" y1="7.81777" x2="39.0653" y2="16.9685" gradientUnits="userSpaceOnUse">
<stop stop-color="#C8FFF2"/>
<stop offset="1" stop-color="#A7E3F4"/>
</linearGradient>
<linearGradient id="paint9_linear_230_20" x1="38.5236" y1="7.39341" x2="38.5236" y2="16.5441" gradientUnits="userSpaceOnUse">
<stop stop-color="#FBFBFB"/>
<stop offset="1" stop-color="#C0C0C0"/>
</linearGradient>
<linearGradient id="paint10_linear_230_20" x1="38.5236" y1="7.39341" x2="38.5236" y2="16.5441" gradientUnits="userSpaceOnUse">
<stop stop-color="#FBFBFB"/>
<stop offset="1" stop-color="#C0C0C0"/>
</linearGradient>
<linearGradient id="paint11_linear_230_20" x1="38.5236" y1="7.39341" x2="38.5236" y2="16.5441" gradientUnits="userSpaceOnUse">
<stop stop-color="#FBFBFB"/>
<stop offset="1" stop-color="#C0C0C0"/>
</linearGradient>
<linearGradient id="paint12_linear_230_20" x1="38.5236" y1="7.39341" x2="38.5236" y2="16.5441" gradientUnits="userSpaceOnUse">
<stop stop-color="#FBFBFB"/>
<stop offset="1" stop-color="#C0C0C0"/>
</linearGradient>
<linearGradient id="paint13_linear_230_20" x1="38.5236" y1="7.39341" x2="38.5236" y2="16.5441" gradientUnits="userSpaceOnUse">
<stop stop-color="#FBFBFB"/>
<stop offset="1" stop-color="#C0C0C0"/>
</linearGradient>
<clipPath id="clip0_230_20">
<rect width="62" height="26" fill="white"/>
</clipPath>
</defs>
</svg>
