<svg width="18" height="16" viewBox="0 0 18 16" fill="none" stroke="#60a5fa" xmlns="http://www.w3.org/2000/svg">
<path d="M17.7394 5.43874L11.6431 0.166782C11.5397 0.0774494 11.415 0.0213669 11.2833 0.00499914C11.1517 -0.0113686 11.0184 0.0126443 10.8988 0.0742696C10.7793 0.135895 10.6783 0.232625 10.6076 0.353311C10.537 0.473998 10.4994 0.613727 10.4993 0.756398V3.06989C0.873143 3.66435 0.0527502 11.865 2.89502e-05 15.4927C-0.00111824 15.6035 0.0318573 15.7116 0.0938076 15.8001C0.155758 15.8887 0.243196 15.9526 0.342473 15.982C0.441749 16.0114 0.547277 16.0046 0.642581 15.9627C0.737884 15.9207 0.817601 15.846 0.869286 15.7501C2.07287 13.5155 4.44661 9.0491 10.4993 9.09685V11.2982C10.4993 11.441 10.5367 11.5808 10.6074 11.7016C10.678 11.8224 10.779 11.9192 10.8985 11.9809C11.0181 12.0426 11.1514 12.0667 11.2832 12.0503C11.4149 12.034 11.5397 11.9779 11.6431 11.8885L17.7394 6.6152C17.8208 6.54422 17.8864 6.45458 17.9315 6.35281C17.9766 6.25104 18 6.13971 18 6.02697C18 5.91422 17.9766 5.8029 17.9315 5.70113C17.8864 5.59936 17.8208 5.50971 17.7394 5.43874Z" fill="white"/>
</svg>
