<svg width="28" height="29" viewBox="0 0 28 29" fill="none" xmlns="http://www.w3.org/2000/svg">
<g opacity="0.83">
<path d="M23.683 28.7114H3.83061C3.29641 28.7114 2.84446 28.3402 2.773 27.8425L1.0752 16.0176H26.4384L24.7406 27.8425C24.6692 28.3402 24.2173 28.7114 23.683 28.7114Z" fill="#F8B276"/>
<path d="M20.8818 26.7144H6.3885C6.06007 26.7144 5.78611 26.4784 5.75779 26.1708L5.21237 20.2467C5.18034 19.8992 5.47195 19.6006 5.84308 19.6006H21.4419C21.8137 19.6006 22.1054 19.9002 22.0725 20.2482L21.5124 26.1723C21.4833 26.4792 21.2097 26.7144 20.8818 26.7144Z" fill="#EEEDFF"/>
<path d="M5.21279 20.2512C5.23806 19.9477 5.50767 19.7036 5.84307 19.7036H21.4419C21.7774 19.7036 22.0468 19.9477 22.0722 20.2511L22.0725 20.2482C22.1054 19.9002 21.8137 19.6006 21.4419 19.6006H5.84307C5.47194 19.6006 5.18044 19.8993 5.21235 20.2467L5.21279 20.2512Z" fill="white"/>
<path d="M1.07617 16.0273L1.56473 19.4301C3.99008 18.7141 13.7325 16.1987 25.9295 19.5592L26.438 16.0176H1.15144L1.07617 16.0273Z" fill="#F89B5F"/>
<g opacity="0.2">
<path d="M25.8031 20.4388L25.9723 19.2593L15.9141 28.7116H16.9999L25.8031 20.4388Z" fill="white"/>
<path d="M11.5429 16.0176L2.31934 24.6855L2.7726 27.8425C2.84406 28.3401 3.2959 28.7114 3.83021 28.7114H5.27388L18.7814 16.0176H11.5429Z" fill="white"/>
<path d="M24.4635 16.0176H21.5319L8.02441 28.7114H10.9561L24.4635 16.0176Z" fill="white"/>
</g>
<path d="M27.1745 17.6398H0.343344L0.00195312 15.2622H27.5158L27.1745 17.6398Z" fill="#F8ECAD"/>
<path d="M0.320312 17.4697L0.344823 17.6404H27.176L27.2005 17.4697H0.320312Z" fill="#F8FED2"/>
<path d="M24.5771 9.78613H2.83133L0.00195312 15.2627L0.0116477 15.3405L27.5081 15.3332L27.5182 15.2627L24.5771 9.78613Z" fill="#F8FED2"/>
<path d="M24.5779 9.78613H2.83221L0 15.2627H27.5191L24.5779 9.78613Z" fill="#F8CE97"/>
<path d="M1.42871 12.4985H26.0345L25.9984 12.4312H1.46346L1.42871 12.4985Z" fill="#F8DDA7"/>
<path d="M1.4375 12.4809H26.0252L25.9891 12.4136H1.47236L1.4375 12.4809Z" fill="#F1A76C"/>
<path d="M19.7395 12.0889H7.74504L7.40332 12.9602H20.0984L19.7395 12.0889Z" fill="#E7653E"/>
<path d="M19.718 12.0889H7.78418V12.9601H19.718V12.0889Z" fill="#D34528"/>
<path d="M17.5172 23.8029H18.8336C18.8991 23.8029 18.9475 23.8056 18.9789 23.811C19.0131 23.8137 19.0515 23.8257 19.0943 23.8471C19.1712 23.8846 19.2097 23.989 19.2097 24.1604C19.2097 24.3478 19.157 24.4576 19.0515 24.4898C19.0031 24.5058 18.929 24.5139 18.8293 24.5139H17.1368C16.9374 24.5139 16.8206 24.463 16.7864 24.3612C16.7693 24.3184 16.7607 24.2501 16.7607 24.1564V21.9233C16.7607 21.7867 16.7878 21.6943 16.8419 21.6461C16.8961 21.5953 16.9987 21.5698 17.1497 21.5698H18.8336C18.8991 21.5698 18.9475 21.5725 18.9789 21.5779C19.0131 21.5805 19.0515 21.5926 19.0943 21.614C19.1712 21.6515 19.2097 21.7559 19.2097 21.9273C19.2097 22.1147 19.157 22.2245 19.0515 22.2566C19.0031 22.2727 18.929 22.2807 18.8293 22.2807H17.5172V22.6864H18.3634C18.429 22.6864 18.4774 22.6891 18.5088 22.6944C18.5429 22.6971 18.5814 22.7091 18.6242 22.7306C18.7011 22.7681 18.7395 22.8725 18.7395 23.0438C18.7395 23.2313 18.6854 23.3411 18.5771 23.3732C18.5287 23.3893 18.4546 23.3973 18.3549 23.3973H17.5172V23.8029Z" fill="#00498E"/>
<path d="M13.8393 21.5664H16.2156C16.3068 21.5664 16.3737 21.5771 16.4165 21.5985C16.4592 21.6173 16.4877 21.6481 16.502 21.6909C16.5162 21.7338 16.5233 21.79 16.5233 21.8596C16.5233 21.9292 16.5162 21.9855 16.502 22.0283C16.4877 22.0685 16.4635 22.0966 16.4293 22.1126C16.378 22.1367 16.3054 22.1488 16.2113 22.1488H15.395V24.169C15.395 24.2306 15.3922 24.2761 15.3865 24.3056C15.3836 24.3351 15.3708 24.3699 15.348 24.41C15.3281 24.4475 15.291 24.4743 15.2369 24.4904C15.1828 24.5064 15.1115 24.5145 15.0232 24.5145C14.9349 24.5145 14.8636 24.5064 14.8095 24.4904C14.7582 24.4743 14.7212 24.4475 14.6984 24.41C14.6784 24.3699 14.6656 24.3351 14.6599 24.3056C14.6571 24.2735 14.6556 24.2266 14.6556 24.165V22.1488H13.8351C13.7439 22.1488 13.6769 22.1394 13.6342 22.1207C13.5915 22.0993 13.563 22.0671 13.5487 22.0243C13.5345 21.9814 13.5273 21.9252 13.5273 21.8556C13.5273 21.786 13.5345 21.7311 13.5487 21.6909C13.563 21.6481 13.5872 21.6186 13.6214 21.6026C13.6727 21.5785 13.7453 21.5664 13.8393 21.5664Z" fill="#00498E"/>
<path d="M12.0451 21.5342C12.4668 21.5342 12.8329 21.6774 13.1434 21.9639C13.454 22.2504 13.6093 22.6066 13.6093 23.0323C13.6093 23.4554 13.4611 23.8168 13.1648 24.1167C12.8685 24.4139 12.5038 24.5626 12.0707 24.5626C11.6376 24.5626 11.2686 24.4153 10.9638 24.1207C10.6618 23.8262 10.5107 23.4754 10.5107 23.0684C10.5107 22.8462 10.5535 22.6387 10.639 22.4459C10.7244 22.2504 10.8384 22.0871 10.9809 21.9559C11.1233 21.8247 11.2872 21.7216 11.4724 21.6466C11.6576 21.5717 11.8485 21.5342 12.0451 21.5342ZM11.2672 23.0484C11.2672 23.2867 11.3484 23.4808 11.5108 23.6307C11.6761 23.778 11.8599 23.8516 12.0622 23.8516C12.2645 23.8516 12.4468 23.7794 12.6092 23.6348C12.7716 23.4902 12.8528 23.296 12.8528 23.0524C12.8528 22.8087 12.7702 22.6133 12.6049 22.466C12.4425 22.3187 12.2602 22.2451 12.0579 22.2451C11.8556 22.2451 11.6732 22.3201 11.5108 22.47C11.3484 22.6173 11.2672 22.8101 11.2672 23.0484Z" fill="#00498E"/>
<path d="M10.2581 21.6137C10.4262 21.6913 10.5102 21.777 10.5102 21.8707C10.5102 21.9136 10.4889 21.9778 10.4461 22.0635L9.26652 24.3127C9.23518 24.3716 9.18674 24.4198 9.12121 24.4573C9.05853 24.4921 8.99299 24.5095 8.92461 24.5095H8.88187C8.81064 24.5095 8.74226 24.4921 8.67673 24.4573C8.61404 24.4198 8.56703 24.3716 8.53569 24.3127L7.3561 22.0635C7.31336 21.9778 7.29199 21.9136 7.29199 21.8707C7.29199 21.777 7.37605 21.6913 7.54415 21.6137C7.63818 21.5682 7.70941 21.5454 7.75784 21.5454C7.80913 21.5454 7.8476 21.5508 7.87324 21.5615C7.89888 21.5722 7.9231 21.5909 7.9459 21.6177C7.97154 21.6498 7.99433 21.686 8.01428 21.7261C8.03707 21.7636 8.09263 21.8748 8.18096 22.0595C8.26928 22.2416 8.36331 22.4357 8.46303 22.6419C8.56561 22.8481 8.66106 23.0435 8.74938 23.2283C8.84056 23.4104 8.89185 23.5121 8.90324 23.5335L9.75802 21.7743C9.78081 21.7235 9.80076 21.6833 9.81785 21.6539C9.86914 21.5816 9.93182 21.5454 10.0059 21.5454C10.08 21.5454 10.164 21.5682 10.2581 21.6137Z" fill="#00498E"/>
<mask id="mask0_331_43" style="mask-type:luminance" maskUnits="userSpaceOnUse" x="5" y="0" width="15" height="14">
<path d="M15.7819 0.516602L5.16113 3.07583L6.94935 13.0098H19.6444L15.7819 0.516602Z" fill="white"/>
</mask>
<g mask="url(#mask0_331_43)">
<path opacity="0.28" d="M16.1645 0.899023L12.4882 1.3648C11.7308 3.67589 11.26 6.06641 11.0904 8.48898C11.0669 8.82404 11.3324 9.16318 11.6752 9.24559C13.8617 9.77105 16.0481 10.2965 18.2347 10.8221L16.8853 1.41558C16.8379 1.08575 16.5152 0.854595 16.1645 0.899023Z" fill="#878787"/>
<path d="M18.2955 13.1591L9.91112 15.2778C9.59239 15.3584 9.26439 15.1809 9.17877 14.8813L5.9982 3.76593C5.91247 3.46639 6.10136 3.15816 6.4202 3.0777L14.8045 0.958861C15.1233 0.878296 15.4511 1.05591 15.5369 1.35544L18.7174 12.4708C18.8031 12.7704 18.6142 13.0785 18.2955 13.1591Z" fill="#EEEDFF"/>
<path d="M14.7628 0.96906L6.46196 3.06681C6.12013 3.15321 5.91752 3.48355 6.00946 3.80479L6.03179 3.8829C5.93985 3.56166 6.14246 3.23121 6.48429 3.14492L14.7852 1.04717C15.127 0.960768 15.4786 1.15118 15.5705 1.47241L15.5481 1.3943C15.4562 1.07307 15.1047 0.882661 14.7628 0.96906Z" fill="#FFFEFF"/>
</g>
</g>
</svg>
