<svg width="80" height="20" viewBox="0 0 80 20" fill="none" xmlns="http://www.w3.org/2000/svg">
<path d="M7.90689 6.78261H7.6897L10.4263 0L18.2887 19.8261H19.8959V20H12.4679V19.8261H14.3792L8.64534 5.30435L7.90689 6.78261Z" fill="url(#paint0_linear_351_48)"/>
<path d="M4.12757 14.0436C2.86785 18.6088 1.69501 19.1596 1 19.6523C1 19.6523 1.91221 20.1161 3.08504 19.9567C4.25788 19.7973 6.75124 18.7306 7.34201 15.7393C7.93277 12.748 9.23882 11.6523 9.818 11.4784C8.26869 10.9567 4.85575 11.4047 4.12757 14.0436Z" fill="url(#paint1_linear_351_48)"/>
<path d="M25.7693 8.76168C27.1468 8.76168 28.1688 9.11518 28.8353 9.82217C29.5166 10.5144 29.8573 11.5749 29.8573 13.0036V19.7863H28.1021V17.9525C27.8207 18.5859 27.3912 19.0793 26.8136 19.4328C26.2359 19.7715 25.5694 19.9409 24.814 19.9409C24.1179 19.9409 23.4736 19.801 22.8811 19.5212C22.3035 19.2413 21.8443 18.851 21.5037 18.3502C21.163 17.8494 20.9927 17.2971 20.9927 16.6932C20.9927 15.8831 21.2 15.2571 21.6148 14.8153C22.0295 14.3587 22.7108 14.0346 23.6587 13.8432C24.6067 13.637 25.9249 13.5339 27.6134 13.5339H28.1021V12.8048C28.1021 11.9063 27.917 11.2582 27.5467 10.8606C27.1764 10.4481 26.5766 10.2419 25.7471 10.2419C24.503 10.2419 23.2662 10.6249 22.0369 11.3908L21.437 10.0873C21.9999 9.68961 22.6738 9.37293 23.4588 9.13727C24.2586 8.88688 25.0288 8.76168 25.7693 8.76168ZM25.0584 18.527C25.9471 18.527 26.6728 18.2324 27.2357 17.6432C27.8133 17.0393 28.1021 16.2661 28.1021 15.3234V14.6827H27.7022C26.3988 14.6827 25.4065 14.7416 24.7251 14.8595C24.0438 14.9626 23.555 15.1467 23.2588 15.4118C22.9774 15.6622 22.8367 16.0378 22.8367 16.5386C22.8367 17.113 23.0441 17.5917 23.4588 17.9746C23.8883 18.3428 24.4215 18.527 25.0584 18.527Z" fill="url(#paint2_linear_351_48)"/>
<path d="M42.7493 4.21045V19.7863H40.9497V17.82C40.6238 18.4975 40.1425 19.0204 39.5056 19.3886C38.8835 19.7568 38.1503 19.9409 37.3061 19.9409C36.3582 19.9409 35.5213 19.7053 34.7956 19.2339C34.0698 18.7626 33.507 18.1072 33.1071 17.2676C32.7072 16.4134 32.5072 15.4265 32.5072 14.3071C32.5072 13.2025 32.7072 12.2303 33.1071 11.3908C33.507 10.5512 34.0698 9.90317 34.7956 9.44658C35.5213 8.98998 36.3582 8.76168 37.3061 8.76168C38.1503 8.76168 38.8835 8.9458 39.5056 9.31402C40.1425 9.68224 40.6238 10.2051 40.9497 10.8826V4.21045H42.7493ZM37.6616 18.4607C38.7132 18.4607 39.5204 18.1072 40.0832 17.4002C40.6609 16.6785 40.9497 15.6622 40.9497 14.3513C40.9497 13.0404 40.6609 12.0315 40.0832 11.3245C39.5204 10.6175 38.7132 10.264 37.6616 10.264C36.61 10.264 35.7879 10.6175 35.1955 11.3245C34.6178 12.0315 34.329 13.0257 34.329 14.3071C34.329 15.618 34.6178 16.6417 35.1955 17.3781C35.7879 18.0998 36.61 18.4607 37.6616 18.4607Z" fill="url(#paint3_linear_351_48)"/>
<path d="M51.5257 8.76168C54.1177 8.76168 55.4137 10.183 55.4137 13.0257V19.7863H53.6141V13.1362C53.6141 12.1346 53.4142 11.4055 53.0143 10.9489C52.6292 10.4923 52.0071 10.264 51.148 10.264C50.1557 10.264 49.3632 10.566 48.7708 11.1699C48.1783 11.7737 47.8821 12.5912 47.8821 13.6222V19.7863H46.0825V4.21045H47.8821V10.7501C48.2376 10.102 48.7264 9.6086 49.3484 9.26983C49.9853 8.93107 50.7111 8.76168 51.5257 8.76168Z" fill="url(#paint4_linear_351_48)"/>
<path d="M63.1088 8.76168C64.4863 8.76168 65.5082 9.11518 66.1748 9.82217C66.8561 10.5144 67.1967 11.5749 67.1967 13.0036V19.7863H65.4416V17.9525C65.1602 18.5859 64.7306 19.0793 64.153 19.4328C63.5754 19.7715 62.9088 19.9409 62.1535 19.9409C61.4573 19.9409 60.813 19.801 60.2206 19.5212C59.6429 19.2413 59.1838 18.851 58.8431 18.3502C58.5025 17.8494 58.3321 17.2971 58.3321 16.6932C58.3321 15.8831 58.5395 15.2571 58.9542 14.8153C59.3689 14.3587 60.0502 14.0346 60.9982 13.8432C61.9461 13.637 63.2643 13.5339 64.9528 13.5339H65.4416V12.8048C65.4416 11.9063 65.2564 11.2582 64.8862 10.8606C64.5159 10.4481 63.916 10.2419 63.0866 10.2419C61.8424 10.2419 60.6057 10.6249 59.3763 11.3908L58.7765 10.0873C59.3393 9.68961 60.0132 9.37293 60.7982 9.13727C61.598 8.88688 62.3682 8.76168 63.1088 8.76168ZM62.3979 18.527C63.2865 18.527 64.0123 18.2324 64.5751 17.6432C65.1528 17.0393 65.4416 16.2661 65.4416 15.3234V14.6827H65.0417C63.7383 14.6827 62.7459 14.7416 62.0646 14.8595C61.3833 14.9626 60.8945 15.1467 60.5983 15.4118C60.3168 15.6622 60.1761 16.0378 60.1761 16.5386C60.1761 17.113 60.3835 17.5917 60.7982 17.9746C61.2277 18.3428 61.761 18.527 62.3979 18.527Z" fill="url(#paint5_linear_351_48)"/>
<path d="M75.9341 8.76168C78.5261 8.76168 79.8221 10.183 79.8221 13.0257V19.7863H78.0225V13.1362C78.0225 12.1346 77.8226 11.4055 77.4227 10.9489C77.0376 10.4923 76.4155 10.264 75.5564 10.264C74.5641 10.264 73.7717 10.566 73.1792 11.1699C72.5868 11.7737 72.2905 12.5912 72.2905 13.6222V19.7863H70.4909V9.0268H72.2683V10.7943C72.6238 10.1315 73.12 9.63069 73.7569 9.29193C74.3937 8.93843 75.1195 8.76168 75.9341 8.76168Z" fill="url(#paint6_linear_351_48)"/>
<defs>
<linearGradient id="paint0_linear_351_48" x1="13.7928" y1="0" x2="13.7928" y2="20" gradientUnits="userSpaceOnUse">
<stop stop-color="white"/>
<stop offset="1" stop-color="#BFBFBF"/>
</linearGradient>
<linearGradient id="paint1_linear_351_48" x1="5.409" y1="11.2871" x2="5.409" y2="19.99" gradientUnits="userSpaceOnUse">
<stop stop-color="white"/>
<stop offset="1" stop-color="#BFBFBF"/>
</linearGradient>
<linearGradient id="paint2_linear_351_48" x1="50.4074" y1="9.48318" x2="50.4074" y2="21.2193" gradientUnits="userSpaceOnUse">
<stop stop-color="white"/>
<stop offset="1" stop-color="#BFBFBF"/>
</linearGradient>
<linearGradient id="paint3_linear_351_48" x1="50.4074" y1="9.48318" x2="50.4074" y2="21.2193" gradientUnits="userSpaceOnUse">
<stop stop-color="white"/>
<stop offset="1" stop-color="#BFBFBF"/>
</linearGradient>
<linearGradient id="paint4_linear_351_48" x1="50.4074" y1="9.48318" x2="50.4074" y2="21.2193" gradientUnits="userSpaceOnUse">
<stop stop-color="white"/>
<stop offset="1" stop-color="#BFBFBF"/>
</linearGradient>
<linearGradient id="paint5_linear_351_48" x1="50.4074" y1="9.48318" x2="50.4074" y2="21.2193" gradientUnits="userSpaceOnUse">
<stop stop-color="white"/>
<stop offset="1" stop-color="#BFBFBF"/>
</linearGradient>
<linearGradient id="paint6_linear_351_48" x1="50.4074" y1="9.48318" x2="50.4074" y2="21.2193" gradientUnits="userSpaceOnUse">
<stop stop-color="white"/>
<stop offset="1" stop-color="#BFBFBF"/>
</linearGradient>
</defs>
</svg>
